<mxfile host="Electron" agent="Mozilla/5.0 (Windows NT 10.0; Win64; x64) AppleWebKit/537.36 (KHTML, like Gecko) draw.io/24.7.17 Chrome/128.0.6613.36 Electron/32.0.1 Safari/537.36" version="24.7.17" pages="2">
  <diagram name="虚拟内存" id="kcrXX2a59Rj-RcSPHwbT">
    <mxGraphModel dx="819" dy="478" grid="1" gridSize="10" guides="1" tooltips="1" connect="1" arrows="1" fold="1" page="1" pageScale="1" pageWidth="827" pageHeight="1169" math="0" shadow="0">
      <root>
        <mxCell id="0" />
        <mxCell id="1" parent="0" />
        <mxCell id="IbKQ7ag2hueVyIo12gT1-26" value="" style="group" parent="1" vertex="1" connectable="0">
          <mxGeometry x="369" y="110" width="140" height="270" as="geometry" />
        </mxCell>
        <mxCell id="IbKQ7ag2hueVyIo12gT1-2" value="" style="childLayout=tableLayout;recursiveResize=0;shadow=0;fillColor=#1ba1e2;fontColor=#ffffff;strokeColor=#006EAF;strokeWidth=2;" parent="IbKQ7ag2hueVyIo12gT1-26" vertex="1">
          <mxGeometry y="30" width="140" height="240" as="geometry" />
        </mxCell>
        <mxCell id="IbKQ7ag2hueVyIo12gT1-3" value="" style="shape=tableRow;horizontal=0;startSize=0;swimlaneHead=0;swimlaneBody=0;top=0;left=0;bottom=0;right=0;dropTarget=0;collapsible=0;recursiveResize=0;expand=0;fontStyle=0;fillColor=none;strokeColor=#001DBC;fontColor=#ffffff;" parent="IbKQ7ag2hueVyIo12gT1-2" vertex="1">
          <mxGeometry width="140" height="30" as="geometry" />
        </mxCell>
        <mxCell id="IbKQ7ag2hueVyIo12gT1-4" value="App 1 Block 1" style="connectable=0;recursiveResize=0;strokeColor=#2D7600;fillColor=#60a917;align=center;whiteSpace=wrap;html=1;fontColor=#ffffff;" parent="IbKQ7ag2hueVyIo12gT1-3" vertex="1">
          <mxGeometry width="140" height="30" as="geometry">
            <mxRectangle width="140" height="30" as="alternateBounds" />
          </mxGeometry>
        </mxCell>
        <mxCell id="IbKQ7ag2hueVyIo12gT1-7" style="shape=tableRow;horizontal=0;startSize=0;swimlaneHead=0;swimlaneBody=0;top=0;left=0;bottom=0;right=0;dropTarget=0;collapsible=0;recursiveResize=0;expand=0;fontStyle=0;fillColor=none;strokeColor=#001DBC;fontColor=#ffffff;" parent="IbKQ7ag2hueVyIo12gT1-2" vertex="1">
          <mxGeometry y="30" width="140" height="30" as="geometry" />
        </mxCell>
        <mxCell id="IbKQ7ag2hueVyIo12gT1-8" value="App 1 Block 2" style="connectable=0;recursiveResize=0;strokeColor=#2D7600;fillColor=#60a917;align=center;whiteSpace=wrap;html=1;fontColor=#ffffff;" parent="IbKQ7ag2hueVyIo12gT1-7" vertex="1">
          <mxGeometry width="140" height="30" as="geometry">
            <mxRectangle width="140" height="30" as="alternateBounds" />
          </mxGeometry>
        </mxCell>
        <mxCell id="IbKQ7ag2hueVyIo12gT1-11" style="shape=tableRow;horizontal=0;startSize=0;swimlaneHead=0;swimlaneBody=0;top=0;left=0;bottom=0;right=0;dropTarget=0;collapsible=0;recursiveResize=0;expand=0;fontStyle=0;fillColor=none;strokeColor=#001DBC;fontColor=#ffffff;" parent="IbKQ7ag2hueVyIo12gT1-2" vertex="1">
          <mxGeometry y="60" width="140" height="30" as="geometry" />
        </mxCell>
        <mxCell id="IbKQ7ag2hueVyIo12gT1-12" value="App 1 Block 3" style="connectable=0;recursiveResize=0;strokeColor=#2D7600;fillColor=#60a917;align=center;whiteSpace=wrap;html=1;fontColor=#ffffff;" parent="IbKQ7ag2hueVyIo12gT1-11" vertex="1">
          <mxGeometry width="140" height="30" as="geometry">
            <mxRectangle width="140" height="30" as="alternateBounds" />
          </mxGeometry>
        </mxCell>
        <mxCell id="IbKQ7ag2hueVyIo12gT1-15" style="shape=tableRow;horizontal=0;startSize=0;swimlaneHead=0;swimlaneBody=0;top=0;left=0;bottom=0;right=0;dropTarget=0;collapsible=0;recursiveResize=0;expand=0;fontStyle=0;fillColor=none;strokeColor=#001DBC;fontColor=#ffffff;" parent="IbKQ7ag2hueVyIo12gT1-2" vertex="1">
          <mxGeometry y="90" width="140" height="30" as="geometry" />
        </mxCell>
        <mxCell id="IbKQ7ag2hueVyIo12gT1-16" value="App 1 Block 4" style="connectable=0;recursiveResize=0;strokeColor=#2D7600;fillColor=#60a917;align=center;whiteSpace=wrap;html=1;fontColor=#ffffff;" parent="IbKQ7ag2hueVyIo12gT1-15" vertex="1">
          <mxGeometry width="140" height="30" as="geometry">
            <mxRectangle width="140" height="30" as="alternateBounds" />
          </mxGeometry>
        </mxCell>
        <mxCell id="IbKQ7ag2hueVyIo12gT1-17" style="shape=tableRow;horizontal=0;startSize=0;swimlaneHead=0;swimlaneBody=0;top=0;left=0;bottom=0;right=0;dropTarget=0;collapsible=0;recursiveResize=0;expand=0;fontStyle=0;fillColor=none;strokeColor=#001DBC;fontColor=#ffffff;" parent="IbKQ7ag2hueVyIo12gT1-2" vertex="1">
          <mxGeometry y="120" width="140" height="30" as="geometry" />
        </mxCell>
        <mxCell id="IbKQ7ag2hueVyIo12gT1-18" style="connectable=0;recursiveResize=0;strokeColor=#001DBC;fillColor=none;align=center;whiteSpace=wrap;html=1;fontColor=#ffffff;" parent="IbKQ7ag2hueVyIo12gT1-17" vertex="1">
          <mxGeometry width="140" height="30" as="geometry">
            <mxRectangle width="140" height="30" as="alternateBounds" />
          </mxGeometry>
        </mxCell>
        <mxCell id="IbKQ7ag2hueVyIo12gT1-19" style="shape=tableRow;horizontal=0;startSize=0;swimlaneHead=0;swimlaneBody=0;top=0;left=0;bottom=0;right=0;dropTarget=0;collapsible=0;recursiveResize=0;expand=0;fontStyle=0;fillColor=none;strokeColor=#001DBC;fontColor=#ffffff;" parent="IbKQ7ag2hueVyIo12gT1-2" vertex="1">
          <mxGeometry y="150" width="140" height="30" as="geometry" />
        </mxCell>
        <mxCell id="IbKQ7ag2hueVyIo12gT1-20" style="connectable=0;recursiveResize=0;strokeColor=#001DBC;fillColor=none;align=center;whiteSpace=wrap;html=1;fontColor=#ffffff;" parent="IbKQ7ag2hueVyIo12gT1-19" vertex="1">
          <mxGeometry width="140" height="30" as="geometry">
            <mxRectangle width="140" height="30" as="alternateBounds" />
          </mxGeometry>
        </mxCell>
        <mxCell id="IbKQ7ag2hueVyIo12gT1-21" style="shape=tableRow;horizontal=0;startSize=0;swimlaneHead=0;swimlaneBody=0;top=0;left=0;bottom=0;right=0;dropTarget=0;collapsible=0;recursiveResize=0;expand=0;fontStyle=0;fillColor=none;strokeColor=#001DBC;fontColor=#ffffff;" parent="IbKQ7ag2hueVyIo12gT1-2" vertex="1">
          <mxGeometry y="180" width="140" height="30" as="geometry" />
        </mxCell>
        <mxCell id="IbKQ7ag2hueVyIo12gT1-22" value="App 2 Block 1" style="connectable=0;recursiveResize=0;strokeColor=#001DBC;fillColor=#0050ef;align=center;whiteSpace=wrap;html=1;fontColor=#ffffff;" parent="IbKQ7ag2hueVyIo12gT1-21" vertex="1">
          <mxGeometry width="140" height="30" as="geometry">
            <mxRectangle width="140" height="30" as="alternateBounds" />
          </mxGeometry>
        </mxCell>
        <mxCell id="IbKQ7ag2hueVyIo12gT1-23" style="shape=tableRow;horizontal=0;startSize=0;swimlaneHead=0;swimlaneBody=0;top=0;left=0;bottom=0;right=0;dropTarget=0;collapsible=0;recursiveResize=0;expand=0;fontStyle=0;fillColor=none;strokeColor=#001DBC;fontColor=#ffffff;" parent="IbKQ7ag2hueVyIo12gT1-2" vertex="1">
          <mxGeometry y="210" width="140" height="30" as="geometry" />
        </mxCell>
        <mxCell id="IbKQ7ag2hueVyIo12gT1-24" value="App 2 Block 2" style="connectable=0;recursiveResize=0;strokeColor=#001DBC;fillColor=#0050ef;align=center;whiteSpace=wrap;html=1;fontColor=#ffffff;" parent="IbKQ7ag2hueVyIo12gT1-23" vertex="1">
          <mxGeometry width="140" height="30" as="geometry">
            <mxRectangle width="140" height="30" as="alternateBounds" />
          </mxGeometry>
        </mxCell>
        <mxCell id="IbKQ7ag2hueVyIo12gT1-25" value="物理内存" style="text;html=1;align=center;verticalAlign=middle;whiteSpace=wrap;rounded=0;" parent="IbKQ7ag2hueVyIo12gT1-26" vertex="1">
          <mxGeometry width="140" height="30" as="geometry" />
        </mxCell>
        <mxCell id="IbKQ7ag2hueVyIo12gT1-29" style="edgeStyle=orthogonalEdgeStyle;rounded=0;orthogonalLoop=1;jettySize=auto;html=1;entryX=0;entryY=0.5;entryDx=0;entryDy=0;" parent="1" source="IbKQ7ag2hueVyIo12gT1-27" target="IbKQ7ag2hueVyIo12gT1-7" edge="1">
          <mxGeometry relative="1" as="geometry" />
        </mxCell>
        <mxCell id="IbKQ7ag2hueVyIo12gT1-30" style="edgeStyle=orthogonalEdgeStyle;rounded=0;orthogonalLoop=1;jettySize=auto;html=1;entryX=0;entryY=0.5;entryDx=0;entryDy=0;" parent="1" source="IbKQ7ag2hueVyIo12gT1-27" target="IbKQ7ag2hueVyIo12gT1-11" edge="1">
          <mxGeometry relative="1" as="geometry" />
        </mxCell>
        <mxCell id="IbKQ7ag2hueVyIo12gT1-31" style="edgeStyle=orthogonalEdgeStyle;rounded=0;orthogonalLoop=1;jettySize=auto;html=1;" parent="1" source="IbKQ7ag2hueVyIo12gT1-27" target="IbKQ7ag2hueVyIo12gT1-3" edge="1">
          <mxGeometry relative="1" as="geometry" />
        </mxCell>
        <mxCell id="IbKQ7ag2hueVyIo12gT1-32" style="edgeStyle=orthogonalEdgeStyle;rounded=0;orthogonalLoop=1;jettySize=auto;html=1;entryX=0;entryY=0.5;entryDx=0;entryDy=0;" parent="1" source="IbKQ7ag2hueVyIo12gT1-27" target="IbKQ7ag2hueVyIo12gT1-15" edge="1">
          <mxGeometry relative="1" as="geometry" />
        </mxCell>
        <mxCell id="IbKQ7ag2hueVyIo12gT1-27" value="Application 1（4MB）" style="image;html=1;image=img/lib/clip_art/computers/Software_128x128.png;imageBackground=none;" parent="1" vertex="1">
          <mxGeometry x="169" y="115" width="80" height="80" as="geometry" />
        </mxCell>
        <mxCell id="IbKQ7ag2hueVyIo12gT1-35" style="edgeStyle=orthogonalEdgeStyle;rounded=0;orthogonalLoop=1;jettySize=auto;html=1;entryX=0;entryY=0.5;entryDx=0;entryDy=0;" parent="1" source="IbKQ7ag2hueVyIo12gT1-28" target="IbKQ7ag2hueVyIo12gT1-21" edge="1">
          <mxGeometry relative="1" as="geometry" />
        </mxCell>
        <mxCell id="IbKQ7ag2hueVyIo12gT1-36" style="edgeStyle=orthogonalEdgeStyle;rounded=0;orthogonalLoop=1;jettySize=auto;html=1;entryX=0;entryY=0.5;entryDx=0;entryDy=0;" parent="1" source="IbKQ7ag2hueVyIo12gT1-28" target="IbKQ7ag2hueVyIo12gT1-23" edge="1">
          <mxGeometry relative="1" as="geometry" />
        </mxCell>
        <mxCell id="IbKQ7ag2hueVyIo12gT1-28" value="Application 2（2MB）" style="image;html=1;image=img/lib/clip_art/computers/Software_128x128.png" parent="1" vertex="1">
          <mxGeometry x="169" y="295" width="80" height="80" as="geometry" />
        </mxCell>
        <mxCell id="IbKQ7ag2hueVyIo12gT1-33" value="" style="shape=curlyBracket;whiteSpace=wrap;html=1;rounded=1;flipH=1;labelPosition=right;verticalLabelPosition=middle;align=left;verticalAlign=middle;" parent="1" vertex="1">
          <mxGeometry x="509" y="140" width="20" height="120" as="geometry" />
        </mxCell>
        <mxCell id="IbKQ7ag2hueVyIo12gT1-34" value="Application 1 的内存" style="text;html=1;align=center;verticalAlign=middle;resizable=0;points=[];autosize=1;strokeColor=none;fillColor=none;" parent="1" vertex="1">
          <mxGeometry x="529" y="185" width="130" height="30" as="geometry" />
        </mxCell>
        <mxCell id="IbKQ7ag2hueVyIo12gT1-37" value="" style="shape=curlyBracket;whiteSpace=wrap;html=1;rounded=1;flipH=1;labelPosition=right;verticalLabelPosition=middle;align=left;verticalAlign=middle;" parent="1" vertex="1">
          <mxGeometry x="509" y="320" width="20" height="60" as="geometry" />
        </mxCell>
        <mxCell id="IbKQ7ag2hueVyIo12gT1-38" value="Application 2 的内存" style="text;html=1;align=center;verticalAlign=middle;resizable=0;points=[];autosize=1;strokeColor=none;fillColor=none;" parent="1" vertex="1">
          <mxGeometry x="529" y="335" width="130" height="30" as="geometry" />
        </mxCell>
        <mxCell id="IbKQ7ag2hueVyIo12gT1-39" value="&lt;b&gt;&lt;u&gt;物理内存&lt;/u&gt;&lt;/b&gt;：当把应用加载到内存中时需要进行内存规划" style="shape=note;whiteSpace=wrap;html=1;backgroundOutline=1;darkOpacity=0.05;size=14;fillColor=#e3c800;fontColor=#000000;strokeColor=#B09500;" parent="1" vertex="1">
          <mxGeometry x="239" y="30" width="391" height="50" as="geometry" />
        </mxCell>
        <mxCell id="IbKQ7ag2hueVyIo12gT1-40" value="" style="group" parent="1" vertex="1" connectable="0">
          <mxGeometry x="620" y="610" width="95.93" height="185" as="geometry" />
        </mxCell>
        <mxCell id="IbKQ7ag2hueVyIo12gT1-41" value="" style="childLayout=tableLayout;recursiveResize=0;shadow=0;fillColor=#1ba1e2;fontColor=#ffffff;strokeColor=#006EAF;strokeWidth=2;" parent="IbKQ7ag2hueVyIo12gT1-40" vertex="1">
          <mxGeometry y="20.555555555555557" width="95.93" height="164.44444444444446" as="geometry" />
        </mxCell>
        <mxCell id="IbKQ7ag2hueVyIo12gT1-42" value="" style="shape=tableRow;horizontal=0;startSize=0;swimlaneHead=0;swimlaneBody=0;top=0;left=0;bottom=0;right=0;dropTarget=0;collapsible=0;recursiveResize=0;expand=0;fontStyle=0;fillColor=none;strokeColor=#001DBC;fontColor=#ffffff;" parent="IbKQ7ag2hueVyIo12gT1-41" vertex="1">
          <mxGeometry width="95.93" height="21" as="geometry" />
        </mxCell>
        <mxCell id="IbKQ7ag2hueVyIo12gT1-43" value="&lt;div style=&quot;font-size: 10px;&quot;&gt;App 1 Block 1&lt;/div&gt;" style="connectable=0;recursiveResize=0;strokeColor=#2D7600;fillColor=#60a917;align=center;whiteSpace=wrap;html=1;fontColor=#ffffff;fontSize=10;" parent="IbKQ7ag2hueVyIo12gT1-42" vertex="1">
          <mxGeometry width="96" height="21" as="geometry">
            <mxRectangle width="96" height="21" as="alternateBounds" />
          </mxGeometry>
        </mxCell>
        <mxCell id="IbKQ7ag2hueVyIo12gT1-44" style="shape=tableRow;horizontal=0;startSize=0;swimlaneHead=0;swimlaneBody=0;top=0;left=0;bottom=0;right=0;dropTarget=0;collapsible=0;recursiveResize=0;expand=0;fontStyle=0;fillColor=none;strokeColor=#001DBC;fontColor=#ffffff;" parent="IbKQ7ag2hueVyIo12gT1-41" vertex="1">
          <mxGeometry y="21" width="95.93" height="20" as="geometry" />
        </mxCell>
        <mxCell id="IbKQ7ag2hueVyIo12gT1-45" value="" style="connectable=0;recursiveResize=0;strokeColor=#006EAF;fillColor=#1ba1e2;align=center;whiteSpace=wrap;html=1;fontColor=#ffffff;fontSize=10;" parent="IbKQ7ag2hueVyIo12gT1-44" vertex="1">
          <mxGeometry width="96" height="20" as="geometry">
            <mxRectangle width="96" height="20" as="alternateBounds" />
          </mxGeometry>
        </mxCell>
        <mxCell id="IbKQ7ag2hueVyIo12gT1-46" style="shape=tableRow;horizontal=0;startSize=0;swimlaneHead=0;swimlaneBody=0;top=0;left=0;bottom=0;right=0;dropTarget=0;collapsible=0;recursiveResize=0;expand=0;fontStyle=0;fillColor=none;strokeColor=#001DBC;fontColor=#ffffff;" parent="IbKQ7ag2hueVyIo12gT1-41" vertex="1">
          <mxGeometry y="41" width="95.93" height="21" as="geometry" />
        </mxCell>
        <mxCell id="IbKQ7ag2hueVyIo12gT1-47" value="App 1 Block 4" style="connectable=0;recursiveResize=0;strokeColor=#2D7600;fillColor=#60a917;align=center;whiteSpace=wrap;html=1;fontColor=#ffffff;fontSize=10;" parent="IbKQ7ag2hueVyIo12gT1-46" vertex="1">
          <mxGeometry width="96" height="21" as="geometry">
            <mxRectangle width="96" height="21" as="alternateBounds" />
          </mxGeometry>
        </mxCell>
        <mxCell id="IbKQ7ag2hueVyIo12gT1-48" style="shape=tableRow;horizontal=0;startSize=0;swimlaneHead=0;swimlaneBody=0;top=0;left=0;bottom=0;right=0;dropTarget=0;collapsible=0;recursiveResize=0;expand=0;fontStyle=0;fillColor=none;strokeColor=#001DBC;fontColor=#ffffff;" parent="IbKQ7ag2hueVyIo12gT1-41" vertex="1">
          <mxGeometry y="62" width="95.93" height="20" as="geometry" />
        </mxCell>
        <mxCell id="IbKQ7ag2hueVyIo12gT1-49" value="" style="connectable=0;recursiveResize=0;strokeColor=#006EAF;fillColor=#1ba1e2;align=center;whiteSpace=wrap;html=1;fontColor=#ffffff;fontSize=10;" parent="IbKQ7ag2hueVyIo12gT1-48" vertex="1">
          <mxGeometry width="96" height="20" as="geometry">
            <mxRectangle width="96" height="20" as="alternateBounds" />
          </mxGeometry>
        </mxCell>
        <mxCell id="IbKQ7ag2hueVyIo12gT1-50" style="shape=tableRow;horizontal=0;startSize=0;swimlaneHead=0;swimlaneBody=0;top=0;left=0;bottom=0;right=0;dropTarget=0;collapsible=0;recursiveResize=0;expand=0;fontStyle=0;fillColor=none;strokeColor=#001DBC;fontColor=#ffffff;" parent="IbKQ7ag2hueVyIo12gT1-41" vertex="1">
          <mxGeometry y="82" width="95.93" height="21" as="geometry" />
        </mxCell>
        <mxCell id="IbKQ7ag2hueVyIo12gT1-51" value="App 2 Block 1" style="connectable=0;recursiveResize=0;strokeColor=#001DBC;fillColor=#0050ef;align=center;whiteSpace=wrap;html=1;fontColor=#ffffff;fontSize=10;" parent="IbKQ7ag2hueVyIo12gT1-50" vertex="1">
          <mxGeometry width="96" height="21" as="geometry">
            <mxRectangle width="96" height="21" as="alternateBounds" />
          </mxGeometry>
        </mxCell>
        <mxCell id="IbKQ7ag2hueVyIo12gT1-52" style="shape=tableRow;horizontal=0;startSize=0;swimlaneHead=0;swimlaneBody=0;top=0;left=0;bottom=0;right=0;dropTarget=0;collapsible=0;recursiveResize=0;expand=0;fontStyle=0;fillColor=none;strokeColor=#001DBC;fontColor=#ffffff;" parent="IbKQ7ag2hueVyIo12gT1-41" vertex="1">
          <mxGeometry y="103" width="95.93" height="20" as="geometry" />
        </mxCell>
        <mxCell id="IbKQ7ag2hueVyIo12gT1-53" value="App 1 Block 2" style="connectable=0;recursiveResize=0;strokeColor=#2D7600;fillColor=#60a917;align=center;whiteSpace=wrap;html=1;fontColor=#ffffff;fontSize=10;" parent="IbKQ7ag2hueVyIo12gT1-52" vertex="1">
          <mxGeometry width="96" height="20" as="geometry">
            <mxRectangle width="96" height="20" as="alternateBounds" />
          </mxGeometry>
        </mxCell>
        <mxCell id="IbKQ7ag2hueVyIo12gT1-54" style="shape=tableRow;horizontal=0;startSize=0;swimlaneHead=0;swimlaneBody=0;top=0;left=0;bottom=0;right=0;dropTarget=0;collapsible=0;recursiveResize=0;expand=0;fontStyle=0;fillColor=none;strokeColor=#001DBC;fontColor=#ffffff;" parent="IbKQ7ag2hueVyIo12gT1-41" vertex="1">
          <mxGeometry y="123" width="95.93" height="21" as="geometry" />
        </mxCell>
        <mxCell id="IbKQ7ag2hueVyIo12gT1-55" value="App 1 Block 3" style="connectable=0;recursiveResize=0;strokeColor=#2D7600;fillColor=#60a917;align=center;whiteSpace=wrap;html=1;fontColor=#ffffff;fontSize=10;" parent="IbKQ7ag2hueVyIo12gT1-54" vertex="1">
          <mxGeometry width="96" height="21" as="geometry">
            <mxRectangle width="96" height="21" as="alternateBounds" />
          </mxGeometry>
        </mxCell>
        <mxCell id="IbKQ7ag2hueVyIo12gT1-56" style="shape=tableRow;horizontal=0;startSize=0;swimlaneHead=0;swimlaneBody=0;top=0;left=0;bottom=0;right=0;dropTarget=0;collapsible=0;recursiveResize=0;expand=0;fontStyle=0;fillColor=none;strokeColor=#001DBC;fontColor=#ffffff;" parent="IbKQ7ag2hueVyIo12gT1-41" vertex="1">
          <mxGeometry y="144" width="95.93" height="20" as="geometry" />
        </mxCell>
        <mxCell id="IbKQ7ag2hueVyIo12gT1-57" value="App 2 Block 2" style="connectable=0;recursiveResize=0;strokeColor=#001DBC;fillColor=#0050ef;align=center;whiteSpace=wrap;html=1;fontColor=#ffffff;fontSize=10;" parent="IbKQ7ag2hueVyIo12gT1-56" vertex="1">
          <mxGeometry width="96" height="20" as="geometry">
            <mxRectangle width="96" height="20" as="alternateBounds" />
          </mxGeometry>
        </mxCell>
        <mxCell id="IbKQ7ag2hueVyIo12gT1-58" value="物理内存" style="text;html=1;align=center;verticalAlign=middle;whiteSpace=wrap;rounded=0;" parent="IbKQ7ag2hueVyIo12gT1-40" vertex="1">
          <mxGeometry width="95.93" height="20.555555555555557" as="geometry" />
        </mxCell>
        <mxCell id="IbKQ7ag2hueVyIo12gT1-118" style="edgeStyle=orthogonalEdgeStyle;rounded=0;orthogonalLoop=1;jettySize=auto;html=1;entryX=0;entryY=0.5;entryDx=0;entryDy=0;" parent="1" source="IbKQ7ag2hueVyIo12gT1-63" target="IbKQ7ag2hueVyIo12gT1-74" edge="1">
          <mxGeometry relative="1" as="geometry" />
        </mxCell>
        <mxCell id="IbKQ7ag2hueVyIo12gT1-119" style="edgeStyle=orthogonalEdgeStyle;rounded=0;orthogonalLoop=1;jettySize=auto;html=1;entryX=0;entryY=0.5;entryDx=0;entryDy=0;" parent="1" source="IbKQ7ag2hueVyIo12gT1-63" target="IbKQ7ag2hueVyIo12gT1-76" edge="1">
          <mxGeometry relative="1" as="geometry" />
        </mxCell>
        <mxCell id="IbKQ7ag2hueVyIo12gT1-120" style="edgeStyle=orthogonalEdgeStyle;rounded=0;orthogonalLoop=1;jettySize=auto;html=1;entryX=0;entryY=0.5;entryDx=0;entryDy=0;" parent="1" source="IbKQ7ag2hueVyIo12gT1-63" target="IbKQ7ag2hueVyIo12gT1-78" edge="1">
          <mxGeometry relative="1" as="geometry" />
        </mxCell>
        <mxCell id="IbKQ7ag2hueVyIo12gT1-121" style="edgeStyle=orthogonalEdgeStyle;rounded=0;orthogonalLoop=1;jettySize=auto;html=1;" parent="1" source="IbKQ7ag2hueVyIo12gT1-63" target="IbKQ7ag2hueVyIo12gT1-80" edge="1">
          <mxGeometry relative="1" as="geometry" />
        </mxCell>
        <mxCell id="IbKQ7ag2hueVyIo12gT1-63" value="Application 1（4MB）" style="image;html=1;image=img/lib/clip_art/computers/Software_128x128.png;imageBackground=none;" parent="1" vertex="1">
          <mxGeometry x="60" y="572.33" width="80" height="80" as="geometry" />
        </mxCell>
        <mxCell id="IbKQ7ag2hueVyIo12gT1-122" style="edgeStyle=orthogonalEdgeStyle;rounded=0;orthogonalLoop=1;jettySize=auto;html=1;" parent="1" source="IbKQ7ag2hueVyIo12gT1-66" target="IbKQ7ag2hueVyIo12gT1-94" edge="1">
          <mxGeometry relative="1" as="geometry" />
        </mxCell>
        <mxCell id="IbKQ7ag2hueVyIo12gT1-123" style="edgeStyle=orthogonalEdgeStyle;rounded=0;orthogonalLoop=1;jettySize=auto;html=1;entryX=0;entryY=0.5;entryDx=0;entryDy=0;" parent="1" source="IbKQ7ag2hueVyIo12gT1-66" target="IbKQ7ag2hueVyIo12gT1-96" edge="1">
          <mxGeometry relative="1" as="geometry" />
        </mxCell>
        <mxCell id="IbKQ7ag2hueVyIo12gT1-66" value="Application 2（2MB）" style="image;html=1;image=img/lib/clip_art/computers/Software_128x128.png" parent="1" vertex="1">
          <mxGeometry x="60" y="725.33" width="80" height="80" as="geometry" />
        </mxCell>
        <mxCell id="IbKQ7ag2hueVyIo12gT1-71" value="&lt;b&gt;&lt;u&gt;虚拟内存&lt;/u&gt;&lt;/b&gt;：每个应用都认为自己拥有&lt;b style=&quot;&quot;&gt;&lt;u&gt;8MB&lt;/u&gt;&lt;/b&gt;的内存空间" style="shape=note;whiteSpace=wrap;html=1;backgroundOutline=1;darkOpacity=0.05;size=14;fillColor=#e3c800;fontColor=#000000;strokeColor=#B09500;" parent="1" vertex="1">
          <mxGeometry x="239" y="470" width="391" height="50" as="geometry" />
        </mxCell>
        <mxCell id="IbKQ7ag2hueVyIo12gT1-73" value="" style="childLayout=tableLayout;recursiveResize=0;shadow=0;fillColor=#60a917;fontColor=#ffffff;strokeColor=#2D7600;strokeWidth=2;" parent="1" vertex="1">
          <mxGeometry x="239" y="548.3333333333334" width="90" height="146.6666666666667" as="geometry" />
        </mxCell>
        <mxCell id="IbKQ7ag2hueVyIo12gT1-74" value="" style="shape=tableRow;horizontal=0;startSize=0;swimlaneHead=0;swimlaneBody=0;top=0;left=0;bottom=0;right=0;dropTarget=0;collapsible=0;recursiveResize=0;expand=0;fontStyle=0;fillColor=none;strokeColor=#001DBC;fontColor=#ffffff;" parent="IbKQ7ag2hueVyIo12gT1-73" vertex="1">
          <mxGeometry width="90" height="18" as="geometry" />
        </mxCell>
        <mxCell id="IbKQ7ag2hueVyIo12gT1-75" value="&lt;div style=&quot;font-size: 10px;&quot;&gt;Used&lt;/div&gt;" style="connectable=0;recursiveResize=0;strokeColor=#2D7600;fillColor=#60a917;align=center;whiteSpace=wrap;html=1;fontColor=#ffffff;fontSize=10;" parent="IbKQ7ag2hueVyIo12gT1-74" vertex="1">
          <mxGeometry width="90" height="18" as="geometry">
            <mxRectangle width="90" height="18" as="alternateBounds" />
          </mxGeometry>
        </mxCell>
        <mxCell id="IbKQ7ag2hueVyIo12gT1-76" style="shape=tableRow;horizontal=0;startSize=0;swimlaneHead=0;swimlaneBody=0;top=0;left=0;bottom=0;right=0;dropTarget=0;collapsible=0;recursiveResize=0;expand=0;fontStyle=0;fillColor=none;strokeColor=#001DBC;fontColor=#ffffff;" parent="IbKQ7ag2hueVyIo12gT1-73" vertex="1">
          <mxGeometry y="18" width="90" height="18" as="geometry" />
        </mxCell>
        <mxCell id="IbKQ7ag2hueVyIo12gT1-77" value="Used" style="connectable=0;recursiveResize=0;strokeColor=#2D7600;fillColor=#60a917;align=center;whiteSpace=wrap;html=1;fontColor=#ffffff;fontSize=10;" parent="IbKQ7ag2hueVyIo12gT1-76" vertex="1">
          <mxGeometry width="90" height="18" as="geometry">
            <mxRectangle width="90" height="18" as="alternateBounds" />
          </mxGeometry>
        </mxCell>
        <mxCell id="IbKQ7ag2hueVyIo12gT1-78" style="shape=tableRow;horizontal=0;startSize=0;swimlaneHead=0;swimlaneBody=0;top=0;left=0;bottom=0;right=0;dropTarget=0;collapsible=0;recursiveResize=0;expand=0;fontStyle=0;fillColor=none;strokeColor=#001DBC;fontColor=#ffffff;" parent="IbKQ7ag2hueVyIo12gT1-73" vertex="1">
          <mxGeometry y="36" width="90" height="19" as="geometry" />
        </mxCell>
        <mxCell id="IbKQ7ag2hueVyIo12gT1-79" value="Used" style="connectable=0;recursiveResize=0;strokeColor=#2D7600;fillColor=#60a917;align=center;whiteSpace=wrap;html=1;fontColor=#ffffff;fontSize=10;" parent="IbKQ7ag2hueVyIo12gT1-78" vertex="1">
          <mxGeometry width="90" height="19" as="geometry">
            <mxRectangle width="90" height="19" as="alternateBounds" />
          </mxGeometry>
        </mxCell>
        <mxCell id="IbKQ7ag2hueVyIo12gT1-80" style="shape=tableRow;horizontal=0;startSize=0;swimlaneHead=0;swimlaneBody=0;top=0;left=0;bottom=0;right=0;dropTarget=0;collapsible=0;recursiveResize=0;expand=0;fontStyle=0;fillColor=none;strokeColor=#001DBC;fontColor=#ffffff;" parent="IbKQ7ag2hueVyIo12gT1-73" vertex="1">
          <mxGeometry y="55" width="90" height="18" as="geometry" />
        </mxCell>
        <mxCell id="IbKQ7ag2hueVyIo12gT1-81" value="Used" style="connectable=0;recursiveResize=0;strokeColor=#2D7600;fillColor=#60a917;align=center;whiteSpace=wrap;html=1;fontColor=#ffffff;fontSize=10;" parent="IbKQ7ag2hueVyIo12gT1-80" vertex="1">
          <mxGeometry width="90" height="18" as="geometry">
            <mxRectangle width="90" height="18" as="alternateBounds" />
          </mxGeometry>
        </mxCell>
        <mxCell id="IbKQ7ag2hueVyIo12gT1-82" style="shape=tableRow;horizontal=0;startSize=0;swimlaneHead=0;swimlaneBody=0;top=0;left=0;bottom=0;right=0;dropTarget=0;collapsible=0;recursiveResize=0;expand=0;fontStyle=0;fillColor=none;strokeColor=#001DBC;fontColor=#ffffff;" parent="IbKQ7ag2hueVyIo12gT1-73" vertex="1">
          <mxGeometry y="73" width="90" height="19" as="geometry" />
        </mxCell>
        <mxCell id="IbKQ7ag2hueVyIo12gT1-83" style="connectable=0;recursiveResize=0;strokeColor=#2D7600;fillColor=#60a917;align=center;whiteSpace=wrap;html=1;fontColor=#ffffff;" parent="IbKQ7ag2hueVyIo12gT1-82" vertex="1">
          <mxGeometry width="90" height="19" as="geometry">
            <mxRectangle width="90" height="19" as="alternateBounds" />
          </mxGeometry>
        </mxCell>
        <mxCell id="IbKQ7ag2hueVyIo12gT1-84" style="shape=tableRow;horizontal=0;startSize=0;swimlaneHead=0;swimlaneBody=0;top=0;left=0;bottom=0;right=0;dropTarget=0;collapsible=0;recursiveResize=0;expand=0;fontStyle=0;fillColor=none;strokeColor=#001DBC;fontColor=#ffffff;" parent="IbKQ7ag2hueVyIo12gT1-73" vertex="1">
          <mxGeometry y="92" width="90" height="18" as="geometry" />
        </mxCell>
        <mxCell id="IbKQ7ag2hueVyIo12gT1-85" style="connectable=0;recursiveResize=0;strokeColor=#2D7600;fillColor=#60a917;align=center;whiteSpace=wrap;html=1;fontColor=#ffffff;" parent="IbKQ7ag2hueVyIo12gT1-84" vertex="1">
          <mxGeometry width="90" height="18" as="geometry">
            <mxRectangle width="90" height="18" as="alternateBounds" />
          </mxGeometry>
        </mxCell>
        <mxCell id="IbKQ7ag2hueVyIo12gT1-86" style="shape=tableRow;horizontal=0;startSize=0;swimlaneHead=0;swimlaneBody=0;top=0;left=0;bottom=0;right=0;dropTarget=0;collapsible=0;recursiveResize=0;expand=0;fontStyle=0;fillColor=none;strokeColor=#001DBC;fontColor=#ffffff;" parent="IbKQ7ag2hueVyIo12gT1-73" vertex="1">
          <mxGeometry y="110" width="90" height="18" as="geometry" />
        </mxCell>
        <mxCell id="IbKQ7ag2hueVyIo12gT1-87" value="" style="connectable=0;recursiveResize=0;strokeColor=#2D7600;fillColor=#60a917;align=center;whiteSpace=wrap;html=1;fontColor=#ffffff;" parent="IbKQ7ag2hueVyIo12gT1-86" vertex="1">
          <mxGeometry width="90" height="18" as="geometry">
            <mxRectangle width="90" height="18" as="alternateBounds" />
          </mxGeometry>
        </mxCell>
        <mxCell id="IbKQ7ag2hueVyIo12gT1-88" style="shape=tableRow;horizontal=0;startSize=0;swimlaneHead=0;swimlaneBody=0;top=0;left=0;bottom=0;right=0;dropTarget=0;collapsible=0;recursiveResize=0;expand=0;fontStyle=0;fillColor=none;strokeColor=#001DBC;fontColor=#ffffff;" parent="IbKQ7ag2hueVyIo12gT1-73" vertex="1">
          <mxGeometry y="128" width="90" height="19" as="geometry" />
        </mxCell>
        <mxCell id="IbKQ7ag2hueVyIo12gT1-89" value="" style="connectable=0;recursiveResize=0;strokeColor=#2D7600;fillColor=#60a917;align=center;whiteSpace=wrap;html=1;fontColor=#ffffff;" parent="IbKQ7ag2hueVyIo12gT1-88" vertex="1">
          <mxGeometry width="90" height="19" as="geometry">
            <mxRectangle width="90" height="19" as="alternateBounds" />
          </mxGeometry>
        </mxCell>
        <mxCell id="IbKQ7ag2hueVyIo12gT1-90" value="虚拟内存" style="text;html=1;align=center;verticalAlign=middle;whiteSpace=wrap;rounded=0;" parent="1" vertex="1">
          <mxGeometry x="239" y="530" width="90" height="18.33333333333334" as="geometry" />
        </mxCell>
        <mxCell id="IbKQ7ag2hueVyIo12gT1-93" value="" style="childLayout=tableLayout;recursiveResize=0;shadow=0;fillColor=#1ba1e2;fontColor=#ffffff;strokeColor=#006EAF;strokeWidth=2;" parent="1" vertex="1">
          <mxGeometry x="239" y="738.3333333333334" width="90" height="146.6666666666667" as="geometry" />
        </mxCell>
        <mxCell id="IbKQ7ag2hueVyIo12gT1-94" value="" style="shape=tableRow;horizontal=0;startSize=0;swimlaneHead=0;swimlaneBody=0;top=0;left=0;bottom=0;right=0;dropTarget=0;collapsible=0;recursiveResize=0;expand=0;fontStyle=0;fillColor=none;strokeColor=#001DBC;fontColor=#ffffff;" parent="IbKQ7ag2hueVyIo12gT1-93" vertex="1">
          <mxGeometry width="90" height="18" as="geometry" />
        </mxCell>
        <mxCell id="IbKQ7ag2hueVyIo12gT1-95" value="&lt;div style=&quot;font-size: 10px;&quot;&gt;Used&lt;br style=&quot;font-size: 10px;&quot;&gt;&lt;/div&gt;" style="connectable=0;recursiveResize=0;strokeColor=#001DBC;fillColor=#0050ef;align=center;whiteSpace=wrap;html=1;fontColor=#ffffff;fontSize=10;" parent="IbKQ7ag2hueVyIo12gT1-94" vertex="1">
          <mxGeometry width="90" height="18" as="geometry">
            <mxRectangle width="90" height="18" as="alternateBounds" />
          </mxGeometry>
        </mxCell>
        <mxCell id="IbKQ7ag2hueVyIo12gT1-96" style="shape=tableRow;horizontal=0;startSize=0;swimlaneHead=0;swimlaneBody=0;top=0;left=0;bottom=0;right=0;dropTarget=0;collapsible=0;recursiveResize=0;expand=0;fontStyle=0;fillColor=none;strokeColor=#001DBC;fontColor=#ffffff;" parent="IbKQ7ag2hueVyIo12gT1-93" vertex="1">
          <mxGeometry y="18" width="90" height="18" as="geometry" />
        </mxCell>
        <mxCell id="IbKQ7ag2hueVyIo12gT1-97" value="Used" style="connectable=0;recursiveResize=0;strokeColor=#001DBC;fillColor=#0050ef;align=center;whiteSpace=wrap;html=1;fontColor=#ffffff;fontSize=10;" parent="IbKQ7ag2hueVyIo12gT1-96" vertex="1">
          <mxGeometry width="90" height="18" as="geometry">
            <mxRectangle width="90" height="18" as="alternateBounds" />
          </mxGeometry>
        </mxCell>
        <mxCell id="IbKQ7ag2hueVyIo12gT1-98" style="shape=tableRow;horizontal=0;startSize=0;swimlaneHead=0;swimlaneBody=0;top=0;left=0;bottom=0;right=0;dropTarget=0;collapsible=0;recursiveResize=0;expand=0;fontStyle=0;fillColor=none;strokeColor=#001DBC;fontColor=#ffffff;" parent="IbKQ7ag2hueVyIo12gT1-93" vertex="1">
          <mxGeometry y="36" width="90" height="19" as="geometry" />
        </mxCell>
        <mxCell id="IbKQ7ag2hueVyIo12gT1-99" value="" style="connectable=0;recursiveResize=0;strokeColor=#001DBC;fillColor=#0050ef;align=center;whiteSpace=wrap;html=1;fontColor=#ffffff;" parent="IbKQ7ag2hueVyIo12gT1-98" vertex="1">
          <mxGeometry width="90" height="19" as="geometry">
            <mxRectangle width="90" height="19" as="alternateBounds" />
          </mxGeometry>
        </mxCell>
        <mxCell id="IbKQ7ag2hueVyIo12gT1-100" style="shape=tableRow;horizontal=0;startSize=0;swimlaneHead=0;swimlaneBody=0;top=0;left=0;bottom=0;right=0;dropTarget=0;collapsible=0;recursiveResize=0;expand=0;fontStyle=0;fillColor=none;strokeColor=#001DBC;fontColor=#ffffff;" parent="IbKQ7ag2hueVyIo12gT1-93" vertex="1">
          <mxGeometry y="55" width="90" height="18" as="geometry" />
        </mxCell>
        <mxCell id="IbKQ7ag2hueVyIo12gT1-101" value="" style="connectable=0;recursiveResize=0;strokeColor=#001DBC;fillColor=#0050ef;align=center;whiteSpace=wrap;html=1;fontColor=#ffffff;" parent="IbKQ7ag2hueVyIo12gT1-100" vertex="1">
          <mxGeometry width="90" height="18" as="geometry">
            <mxRectangle width="90" height="18" as="alternateBounds" />
          </mxGeometry>
        </mxCell>
        <mxCell id="IbKQ7ag2hueVyIo12gT1-102" style="shape=tableRow;horizontal=0;startSize=0;swimlaneHead=0;swimlaneBody=0;top=0;left=0;bottom=0;right=0;dropTarget=0;collapsible=0;recursiveResize=0;expand=0;fontStyle=0;fillColor=none;strokeColor=#001DBC;fontColor=#ffffff;" parent="IbKQ7ag2hueVyIo12gT1-93" vertex="1">
          <mxGeometry y="73" width="90" height="19" as="geometry" />
        </mxCell>
        <mxCell id="IbKQ7ag2hueVyIo12gT1-103" style="connectable=0;recursiveResize=0;strokeColor=#001DBC;fillColor=#0050ef;align=center;whiteSpace=wrap;html=1;fontColor=#ffffff;" parent="IbKQ7ag2hueVyIo12gT1-102" vertex="1">
          <mxGeometry width="90" height="19" as="geometry">
            <mxRectangle width="90" height="19" as="alternateBounds" />
          </mxGeometry>
        </mxCell>
        <mxCell id="IbKQ7ag2hueVyIo12gT1-104" style="shape=tableRow;horizontal=0;startSize=0;swimlaneHead=0;swimlaneBody=0;top=0;left=0;bottom=0;right=0;dropTarget=0;collapsible=0;recursiveResize=0;expand=0;fontStyle=0;fillColor=none;strokeColor=#001DBC;fontColor=#ffffff;" parent="IbKQ7ag2hueVyIo12gT1-93" vertex="1">
          <mxGeometry y="92" width="90" height="18" as="geometry" />
        </mxCell>
        <mxCell id="IbKQ7ag2hueVyIo12gT1-105" style="connectable=0;recursiveResize=0;strokeColor=#001DBC;fillColor=#0050ef;align=center;whiteSpace=wrap;html=1;fontColor=#ffffff;" parent="IbKQ7ag2hueVyIo12gT1-104" vertex="1">
          <mxGeometry width="90" height="18" as="geometry">
            <mxRectangle width="90" height="18" as="alternateBounds" />
          </mxGeometry>
        </mxCell>
        <mxCell id="IbKQ7ag2hueVyIo12gT1-106" style="shape=tableRow;horizontal=0;startSize=0;swimlaneHead=0;swimlaneBody=0;top=0;left=0;bottom=0;right=0;dropTarget=0;collapsible=0;recursiveResize=0;expand=0;fontStyle=0;fillColor=none;strokeColor=#001DBC;fontColor=#ffffff;" parent="IbKQ7ag2hueVyIo12gT1-93" vertex="1">
          <mxGeometry y="110" width="90" height="18" as="geometry" />
        </mxCell>
        <mxCell id="IbKQ7ag2hueVyIo12gT1-107" value="" style="connectable=0;recursiveResize=0;strokeColor=#001DBC;fillColor=#0050ef;align=center;whiteSpace=wrap;html=1;fontColor=#ffffff;" parent="IbKQ7ag2hueVyIo12gT1-106" vertex="1">
          <mxGeometry width="90" height="18" as="geometry">
            <mxRectangle width="90" height="18" as="alternateBounds" />
          </mxGeometry>
        </mxCell>
        <mxCell id="IbKQ7ag2hueVyIo12gT1-108" style="shape=tableRow;horizontal=0;startSize=0;swimlaneHead=0;swimlaneBody=0;top=0;left=0;bottom=0;right=0;dropTarget=0;collapsible=0;recursiveResize=0;expand=0;fontStyle=0;fillColor=none;strokeColor=#001DBC;fontColor=#ffffff;" parent="IbKQ7ag2hueVyIo12gT1-93" vertex="1">
          <mxGeometry y="128" width="90" height="19" as="geometry" />
        </mxCell>
        <mxCell id="IbKQ7ag2hueVyIo12gT1-109" value="" style="connectable=0;recursiveResize=0;strokeColor=#001DBC;fillColor=#0050ef;align=center;whiteSpace=wrap;html=1;fontColor=#ffffff;" parent="IbKQ7ag2hueVyIo12gT1-108" vertex="1">
          <mxGeometry width="90" height="19" as="geometry">
            <mxRectangle width="90" height="19" as="alternateBounds" />
          </mxGeometry>
        </mxCell>
        <mxCell id="IbKQ7ag2hueVyIo12gT1-110" value="虚拟内存" style="text;html=1;align=center;verticalAlign=middle;whiteSpace=wrap;rounded=0;" parent="1" vertex="1">
          <mxGeometry x="239" y="720" width="90" height="18.33333333333334" as="geometry" />
        </mxCell>
        <mxCell id="IbKQ7ag2hueVyIo12gT1-111" value="" style="shape=flexArrow;endArrow=classic;html=1;rounded=0;fillColor=#60a917;strokeColor=#2D7600;entryX=0.163;entryY=0.021;entryDx=0;entryDy=0;entryPerimeter=0;" parent="1" edge="1" target="IbKQ7ag2hueVyIo12gT1-113">
          <mxGeometry width="50" height="50" relative="1" as="geometry">
            <mxPoint x="430" y="610" as="sourcePoint" />
            <mxPoint x="400" y="610" as="targetPoint" />
          </mxGeometry>
        </mxCell>
        <mxCell id="IbKQ7ag2hueVyIo12gT1-112" value="" style="shape=flexArrow;endArrow=classic;html=1;rounded=0;fillColor=#0050ef;strokeColor=#001DBC;entryX=0.055;entryY=1.029;entryDx=0;entryDy=0;entryPerimeter=0;" parent="1" edge="1" target="IbKQ7ag2hueVyIo12gT1-113">
          <mxGeometry width="50" height="50" relative="1" as="geometry">
            <mxPoint x="440" y="780" as="sourcePoint" />
            <mxPoint x="400" y="800" as="targetPoint" />
          </mxGeometry>
        </mxCell>
        <mxCell id="IbKQ7ag2hueVyIo12gT1-113" value="&lt;b&gt;&lt;font style=&quot;font-size: 16px;&quot;&gt;MMU&lt;/font&gt;&lt;/b&gt;" style="image;html=1;image=img/lib/clip_art/computers/Virtual_Application_128x128.png" parent="1" vertex="1">
          <mxGeometry x="500" y="650" width="80" height="80" as="geometry" />
        </mxCell>
        <mxCell id="IbKQ7ag2hueVyIo12gT1-116" value="" style="shape=curlyBracket;whiteSpace=wrap;html=1;rounded=1;flipH=1;labelPosition=right;verticalLabelPosition=middle;align=left;verticalAlign=middle;" parent="1" vertex="1">
          <mxGeometry x="715.93" y="632" width="20" height="160" as="geometry" />
        </mxCell>
        <mxCell id="IbKQ7ag2hueVyIo12gT1-117" value="8MB" style="text;html=1;align=center;verticalAlign=middle;resizable=0;points=[];autosize=1;strokeColor=none;fillColor=none;fontSize=16;" parent="1" vertex="1">
          <mxGeometry x="730.93" y="697" width="60" height="30" as="geometry" />
        </mxCell>
        <mxCell id="IbKQ7ag2hueVyIo12gT1-124" value="&lt;font style=&quot;font-size: 11px;&quot; color=&quot;#000000&quot;&gt;&lt;b style=&quot;&quot;&gt;实际上并没有16MB的空间，&lt;/b&gt;&lt;/font&gt;&lt;div style=&quot;font-size: 11px;&quot;&gt;&lt;font style=&quot;font-size: 11px;&quot; color=&quot;#000000&quot;&gt;&lt;b style=&quot;&quot;&gt;该怎么转换？&lt;/b&gt;&lt;/font&gt;&lt;/div&gt;" style="whiteSpace=wrap;html=1;shape=mxgraph.basic.oval_callout;fillColor=#f9f7ed;strokeColor=#36393d;" parent="1" vertex="1">
          <mxGeometry x="500" y="540" width="180" height="60" as="geometry" />
        </mxCell>
      </root>
    </mxGraphModel>
  </diagram>
  <diagram id="g8Mtabn8RW4cMnYj2DPA" name="内存分页">
    <mxGraphModel dx="989" dy="577" grid="1" gridSize="10" guides="1" tooltips="1" connect="1" arrows="1" fold="1" page="1" pageScale="1" pageWidth="827" pageHeight="1169" math="0" shadow="0">
      <root>
        <mxCell id="0" />
        <mxCell id="1" parent="0" />
      </root>
    </mxGraphModel>
  </diagram>
</mxfile>
